<svg width="40px" height="40px" viewBox="0 0 40 40" version="1.1" xmlns="http://www.w3.org/2000/svg" xmlns:xlink="http://www.w3.org/1999/xlink">
    <!-- Generator: Sketch 52.5 (67469) - http://www.bohemiancoding.com/sketch -->
    <title>形状</title>
    <desc>Created with Sketch.</desc>
    <g id="首页" stroke="none" stroke-width="1" fill="none" fill-rule="evenodd">
        <g id="首页登陆样式-选择币种-copy" transform="translate(-355.000000, -581.000000)" fill="#9C27B0" fill-rule="nonzero">
            <g id="Group-3" transform="translate(0.000000, 541.000000)">
                <g id="ETC-alt-Copy" transform="translate(355.000000, 40.000000)">
                    <path d="M20,0 C8.95943563,0 0,8.95943563 0,20 C0,31.0405644 8.95943563,40 20,40 C31.0405644,40 40,31.0405644 40,20 C40,8.95943563 31.0405644,0 20,0 Z M19.6116838,7 L27,19 L19.6116838,15.6017699 L12,18.9115044 L19.6116838,7 Z M20.1141603,17 L28,20.5476718 L20.1141603,25 L12,20.45898 L20.1141603,17 Z M20,33 L12,22 L19.9284116,26.5200642 L28,22 L20,33 Z" id="形状"/>
                </g>
            </g>
        </g>
    </g>
</svg>