<svg width="40px" height="40px" viewBox="0 0 40 40" version="1.1" xmlns="http://www.w3.org/2000/svg" xmlns:xlink="http://www.w3.org/1999/xlink">
    <!-- Generator: Sketch 52.5 (67469) - http://www.bohemiancoding.com/sketch -->
    <title>分组 29</title>
    <desc>Created with Sketch.</desc>
    <g id="首页" stroke="none" stroke-width="1" fill="none" fill-rule="evenodd">
        <g id="首页登陆样式-选择币种-copy" transform="translate(-604.000000, -581.000000)" fill-rule="nonzero">
            <g id="Group-3" transform="translate(0.000000, 541.000000)">
                <g id="分组-29" transform="translate(604.000000, 40.000000)">
                    <circle id="椭圆形-copy-2" fill="#1882D4" cx="20" cy="20" r="20"/>
                    <g id="分组-27" transform="translate(12.000000, 7.000000)" fill="#FFFFFF">
                        <path d="M10,7.69414577 C10,4.10462612 8.36681121,1.0177476 7.12447412,0.0126588758 C7.11941221,0.00936857957 7.02938254,-0.0446309882 7.0369754,0.0987872186 C7.03715619,0.100722687 7.03552914,0.101303328 7.03552914,0.103045249 C6.93212157,7.03376396 3.62506795,8.91213602 1.8069387,11.4425674 C-2.38884152,17.2818755 1.51334798,23.6840178 5.48676577,24.8671696 C7.7102093,25.5292933 4.97334357,23.6956306 4.62081776,19.8229519 C4.19471349,15.1420216 10,11.569147 10,7.69414577" id="Fill-3"/>
                        <path d="M12.704072,10.0171466 C12.674639,9.99852065 12.6328441,9.98571534 12.6038035,10.0301459 C12.5245305,10.9049816 11.5603047,12.7755275 10.3380493,14.4933797 C6.19270207,20.3203795 8.55499662,23.1290116 9.88340713,24.6377103 C10.6545524,25.5135162 9.88340713,24.6377103 11.811074,23.7426965 C11.9623598,23.6726553 15.5726146,21.7966769 15.9636814,17.5226125 C16.34219,13.3839739 13.6590755,10.7751823 12.704072,10.0171466" id="Fill-5"/>
                    </g>
                </g>
            </g>
        </g>
    </g>
</svg>