<svg width="60px" height="60px" viewBox="0 0 60 60" version="1.1" xmlns="http://www.w3.org/2000/svg" xmlns:xlink="http://www.w3.org/1999/xlink">
    <!-- Generator: Sketch 52.2 (67145) - http://www.bohemiancoding.com/sketch -->
    <title>Group 19</title>
    <desc>Created with Sketch.</desc>
    <defs>
        <rect id="path-1" x="0" y="0" width="44" height="44" rx="3"/>
        <filter x="-31.8%" y="-22.7%" width="163.6%" height="163.6%" filterUnits="objectBoundingBox" id="filter-2">
            <feOffset dx="0" dy="4" in="SourceAlpha" result="shadowOffsetOuter1"/>
            <feGaussianBlur stdDeviation="4" in="shadowOffsetOuter1" result="shadowBlurOuter1"/>
            <feColorMatrix values="0 0 0 0 0.192156863   0 0 0 0 0.403921569   0 0 0 0 0.705882353  0 0 0 0.1 0" type="matrix" in="shadowBlurOuter1" result="shadowMatrixOuter1"/>
            <feOffset dx="0" dy="0" in="SourceAlpha" result="shadowOffsetOuter2"/>
            <feGaussianBlur stdDeviation="0.5" in="shadowOffsetOuter2" result="shadowBlurOuter2"/>
            <feColorMatrix values="0 0 0 0 0.0352941176   0 0 0 0 0.117647059   0 0 0 0 0.258823529  0 0 0 0.31 0" type="matrix" in="shadowBlurOuter2" result="shadowMatrixOuter2"/>
            <feMerge>
                <feMergeNode in="shadowMatrixOuter1"/>
                <feMergeNode in="shadowMatrixOuter2"/>
            </feMerge>
        </filter>
    </defs>
    <g id="⚡️FINALFINAL" stroke="none" stroke-width="1" fill="none" fill-rule="evenodd">
        <g id="01_首页未登录" transform="translate(-574.000000, -1733.000000)">
            <g id="Group-41" transform="translate(0.000000, 1011.000000)">
                <g id="Group-33" transform="translate(204.000000, 120.000000)">
                    <g id="Group-36" transform="translate(0.000000, 162.000000)">
                        <g id="Group-12" transform="translate(72.000000, 326.000000)">
                            <g id="Group-37" transform="translate(-0.000000, 118.000000)">
                                <g id="Group-19" transform="translate(306.000000, 0.000000)">
                                    <g id="Rectangle">
                                        <use fill="black" fill-opacity="1" filter="url(#filter-2)" xlink:href="#path-1"/>
                                        <use fill="#FFFFFF" fill-rule="evenodd" xlink:href="#path-1"/>
                                    </g>
                                    <path d="M26.9921875,31 L26.9921875,28.9960938 L28.9960938,28.9960938 L28.9960938,26.9921875 L31,26.9921875 L31,31 L26.9921875,31 Z M28.9960938,22.984375 L31,22.984375 L31,24.9882812 L28.9960938,24.9882812 L28.9960938,22.984375 Z M30.015625,21.015625 L24.0039062,21.015625 C23.7226548,21.015625 23.4824229,20.9160166 23.2832031,20.7167969 C23.0839834,20.5175771 22.984375,20.2773452 22.984375,19.9960938 L22.984375,13.984375 C22.984375,13.7265612 23.0839834,13.4980479 23.2832031,13.2988281 C23.4824229,13.0996084 23.7226548,13 24.0039062,13 L30.015625,13 C30.2734388,13 30.5019521,13.0996084 30.7011719,13.2988281 C30.9003916,13.4980479 31,13.7265612 31,13.984375 L31,19.9960938 C31,20.2773452 30.9003916,20.5175771 30.7011719,20.7167969 C30.5019521,20.9160166 30.2734388,21.015625 30.015625,21.015625 Z M28.9960938,15.0039062 L24.9882812,15.0039062 L24.9882812,19.0117188 L28.9960938,19.0117188 L28.9960938,15.0039062 Z M28.0117188,17.9921875 L26.0078125,17.9921875 L26.0078125,15.9882812 L28.0117188,15.9882812 L28.0117188,17.9921875 Z M19.9960938,31 L13.984375,31 C13.7265612,31 13.4980479,30.9003916 13.2988281,30.7011719 C13.0996084,30.5019521 13,30.2734388 13,30.015625 L13,24.0039062 C13,23.7226548 13.0996084,23.4824229 13.2988281,23.2832031 C13.4980479,23.0839834 13.7265612,22.984375 13.984375,22.984375 L19.9960938,22.984375 C20.2773452,22.984375 20.5175771,23.0839834 20.7167969,23.2832031 C20.9160166,23.4824229 21.015625,23.7226548 21.015625,24.0039062 L21.015625,30.015625 C21.015625,30.2734388 20.9160166,30.5019521 20.7167969,30.7011719 C20.5175771,30.9003916 20.2773452,31 19.9960938,31 Z M19.0117188,24.9882812 L15.0039062,24.9882812 L15.0039062,28.9960938 L19.0117188,28.9960938 L19.0117188,24.9882812 Z M17.9921875,28.0117188 L15.9882812,28.0117188 L15.9882812,26.0078125 L17.9921875,26.0078125 L17.9921875,28.0117188 Z M19.9960938,21.015625 L13.984375,21.015625 C13.7265612,21.015625 13.4980479,20.9160166 13.2988281,20.7167969 C13.0996084,20.5175771 13,20.2773452 13,19.9960938 L13,13.984375 C13,13.7265612 13.0996084,13.4980479 13.2988281,13.2988281 C13.4980479,13.0996084 13.7265612,13 13.984375,13 L19.9960938,13 C20.2773452,13 20.5175771,13.0996084 20.7167969,13.2988281 C20.9160166,13.4980479 21.015625,13.7265612 21.015625,13.984375 L21.015625,19.9960938 C21.015625,20.2773452 20.9160166,20.5175771 20.7167969,20.7167969 C20.5175771,20.9160166 20.2773452,21.015625 19.9960938,21.015625 Z M19.0117188,15.0039062 L15.0039062,15.0039062 L15.0039062,19.0117188 L19.0117188,19.0117188 L19.0117188,15.0039062 Z M17.9921875,17.9921875 L15.9882812,17.9921875 L15.9882812,15.9882812 L17.9921875,15.9882812 L17.9921875,17.9921875 Z M26.9921875,26.9921875 L22.984375,26.9921875 L22.984375,22.984375 L26.9921875,22.984375 L26.9921875,26.9921875 Z M24.9882812,31 L22.984375,31 L22.984375,28.9960938 L24.9882812,28.9960938 L24.9882812,31 Z" id="" fill="#000000" fill-rule="nonzero" transform="translate(22.000000, 22.000000) rotate(-270.000000) translate(-22.000000, -22.000000) "/>
                                </g>
                            </g>
                        </g>
                    </g>
                </g>
            </g>
        </g>
    </g>
</svg>