<svg xmlns="http://www.w3.org/2000/svg" width="33" height="33" viewBox="0 0 33 33">
  <g id="birikim" transform="translate(623 230)">
    <g id="Ellipse_3" data-name="Ellipse 3" transform="translate(-623 -230)" fill="none" stroke="#929ca6" stroke-width="3">
      <circle cx="16.5" cy="16.5" r="16.5" stroke="none"/>
      <circle cx="16.5" cy="16.5" r="15" fill="none"/>
    </g>
    <path id="Icon_ionic-logo-usd" data-name="Icon ionic-logo-usd" d="M19.842,13.51a3.746,3.746,0,0,0-.594-1.119,4.266,4.266,0,0,0-.993-.927,4.918,4.918,0,0,0-1.393-.639c-.213-.057-.589-.146-1.084-.266-.353-.086-.685-.174-1.058-.264V5.906a3.09,3.09,0,0,1,.91.433A2.478,2.478,0,0,1,16.7,8.227h2.871a4.131,4.131,0,0,0-.5-1.91,4.669,4.669,0,0,0-1.359-1.534,6.244,6.244,0,0,0-2.008-.932,7.173,7.173,0,0,0-.99-.215V2.25H12.063V3.627c-.291.043-.629.1-.931.176a6.124,6.124,0,0,0-1.907.82,4.374,4.374,0,0,0-1.353,1.4A3.749,3.749,0,0,0,7.36,8.012a4.089,4.089,0,0,0,.173,1.172,3.179,3.179,0,0,0,.583,1.087,4.081,4.081,0,0,0,1.108.927,6.186,6.186,0,0,0,1.726.671c.385.1.782.188,1.114.273v4.964a4.135,4.135,0,0,1-1.273-.56,2.649,2.649,0,0,1-.88-.991A3.145,3.145,0,0,1,9.6,14.2H6.75a5.215,5.215,0,0,0,.568,2.3,4.834,4.834,0,0,0,1.461,1.684,6.212,6.212,0,0,0,2.125.975,10.773,10.773,0,0,0,1.159.217v1.467H14.72V19.413a9.86,9.86,0,0,0,1.184-.2,6.7,6.7,0,0,0,2.089-.842,4.587,4.587,0,0,0,1.478-1.481,4.078,4.078,0,0,0,.562-2.184A3.842,3.842,0,0,0,19.842,13.51ZM12.063,9.626a3.889,3.889,0,0,1-1.33-.666,1.57,1.57,0,0,1-.526-1.268,1.563,1.563,0,0,1,.291-.959,2,2,0,0,1,.7-.607,3.755,3.755,0,0,1,.865-.3ZM17,15.843a1.906,1.906,0,0,1-.594.735,3.448,3.448,0,0,1-1.095.522,3.248,3.248,0,0,1-.59.134V12.789c.415.109.755.221,1.093.338a2.472,2.472,0,0,1,.935.586A1.741,1.741,0,0,1,17.176,15,2.067,2.067,0,0,1,17,15.843Z" transform="translate(-619.737 -225.318)" fill="#f9db3d"/>
  </g>
</svg>
