<svg xmlns="http://www.w3.org/2000/svg" width="126.606" height="126.61" viewBox="0 0 126.606 126.61">
  <g id="bnb" transform="translate(0 452)">
    <path id="Path_42" data-name="Path 42" d="M38.72,53.2,63.31,28.62l24.6,24.6,14.3-14.31L63.31,0,24.41,38.9Z" transform="translate(0.005 -452)" fill="#eacf4a"/>
    <path id="Path_43" data-name="Path 43" d="M3.64,53.19H23.87V73.42H3.64Z" transform="translate(-40.185 -423.73) rotate(-45)" fill="#eacf4a"/>
    <path id="Path_44" data-name="Path 44" d="M38.72,73.41,63.31,98l24.6-24.6,14.31,14.29-.01.01-38.9,38.91L24.41,87.72l-.02-.02Z" transform="translate(0.005 -452)" fill="#eacf4a"/>
    <path id="Path_45" data-name="Path 45" d="M101.64,53.19h20.23V73.42H101.64Z" transform="translate(-11.485 -354.43) rotate(-45)" fill="#eacf4a"/>
    <path id="Path_46" data-name="Path 46" d="M77.82,63.3,63.31,48.78,52.58,59.51l-1.24,1.23L48.8,63.28l-.02.02.02.03,14.51,14.5L77.82,63.31l.01-.01Z" transform="translate(0.005 -452)" fill="#eacf4a"/>
  </g>
</svg>
