<svg xmlns="http://www.w3.org/2000/svg" width="33" height="33" viewBox="0 0 33 33">
  <g id="btc" transform="translate(580 227)">
    <g id="Ellipse_3" data-name="Ellipse 3" transform="translate(-580 -227)" fill="none" stroke="#929ca6" stroke-width="3">
      <circle cx="16.5" cy="16.5" r="16.5" stroke="none"/>
      <circle cx="16.5" cy="16.5" r="15" fill="none"/>
    </g>
    <path id="Icon_awesome-btc" data-name="Icon awesome-btc" d="M11.1,8.576A2.65,2.65,0,0,0,12.555,5.7C12.365,3.675,10.7,3,8.5,2.807V0H6.78V2.729c-.446,0-.9.011-1.359.022V0H3.706V2.807c-.631.019-1.365.01-3.441,0V4.633c1.354-.024,2.065-.111,2.228.757v7.685c-.1.689-.655.59-1.882.568L.265,15.682c3.127,0,3.441.011,3.441.011v2.4H5.421v-2.37c.468.011.924.011,1.359.011V18.1H8.5v-2.4c2.873-.156,4.794-.88,5.051-3.586A2.909,2.909,0,0,0,11.1,8.576ZM5.455,4.756c.969,0,4-.3,4,1.715,0,1.927-3.029,1.7-4,1.7V4.756Zm0,8.9V9.89c1.158,0,4.705-.323,4.705,1.882C10.16,13.9,6.613,13.655,5.455,13.655Z" transform="translate(-570.265 -220)" fill="#f9db3d"/>
  </g>
</svg>
