<svg xmlns="http://www.w3.org/2000/svg" width="33" height="33" viewBox="0 0 33 33">
  <g id="more" transform="translate(580 227)">
    <g id="btc">
      <g id="Ellipse_3" data-name="Ellipse 3" transform="translate(-580 -227)" fill="none" stroke="#929ca6" stroke-width="3">
        <circle cx="16.5" cy="16.5" r="16.5" stroke="none"/>
        <circle cx="16.5" cy="16.5" r="15" fill="none"/>
      </g>
    </g>
    <path id="Path_47" data-name="Path 47" d="M4.4.342A2.128,2.128,0,0,1,2.939-.205a1.942,1.942,0,0,1-.615-1.531,1.982,1.982,0,0,1,.588-1.436,1.947,1.947,0,0,1,1.449-.6,2.026,2.026,0,0,1,1.47.595,1.942,1.942,0,0,1,.608,1.442A1.958,1.958,0,0,1,5.831-.212,2.054,2.054,0,0,1,4.4.342Zm6.664,0A2.128,2.128,0,0,1,9.6-.205a1.942,1.942,0,0,1-.615-1.531,1.982,1.982,0,0,1,.588-1.436,1.947,1.947,0,0,1,1.449-.6,2.026,2.026,0,0,1,1.47.595A1.942,1.942,0,0,1,13.1-1.736a1.958,1.958,0,0,1-.608,1.524A2.054,2.054,0,0,1,11.066.342Zm6.664,0a2.128,2.128,0,0,1-1.463-.547,1.942,1.942,0,0,1-.615-1.531,1.982,1.982,0,0,1,.588-1.436,1.947,1.947,0,0,1,1.449-.6,2.026,2.026,0,0,1,1.47.595,1.942,1.942,0,0,1,.608,1.442,1.958,1.958,0,0,1-.608,1.524A2.054,2.054,0,0,1,17.73.342Z" transform="translate(-574.324 -209.227)" fill="#fbdb3b"/>
  </g>
</svg>
