<svg xmlns="http://www.w3.org/2000/svg" width="37.578" height="47" viewBox="0 0 37.578 47">
  <g id="notify" transform="translate(-6.761 -3.93)">
    <path id="Path_9" data-name="Path 9" d="M20.266,34.562c3.653,0,5.65-2.584,5.65-6.226H14.6C14.6,31.977,16.6,34.562,20.266,34.562Z" transform="translate(5.26 16.368)"/>
    <path id="Path_10" data-name="Path 10" d="M43.863,38.737c-1.809-2.385-5.368-3.783-5.368-14.46,0-10.96-4.84-15.365-9.351-16.422-.423-.106-.728-.247-.728-.693V6.82a2.866,2.866,0,1,0-5.733,0v.341c0,.435-.305.587-.728.693C17.432,8.923,12.6,13.316,12.6,24.276c0,10.678-3.559,12.064-5.368,14.46A2.332,2.332,0,0,0,9.1,42.472h32.9A2.332,2.332,0,0,0,43.863,38.737Z" transform="translate(0 0)"/>
  </g>
</svg>
