<svg xmlns="http://www.w3.org/2000/svg" width="33.996" height="28.986" viewBox="0 0 33.996 28.986">
  <g id="speaker" transform="translate(577.917 446.111)">
    <g id="Icon_ionic-md-megaphone" data-name="Icon ionic-md-megaphone" transform="translate(-579.167 -448.5)">
      <path id="Path_13" data-name="Path 13" d="M22.5,12.945V5.625H20.25L13.5,11.25h-9L2.25,12.375V20.25L4.5,21.375l5.625,9H13.5l-2.109-9H13.5l6.75,4.5H22.5v-7.32a2.664,2.664,0,0,0,2.25-2.805A2.664,2.664,0,0,0,22.5,12.945Z" fill="none" stroke="#8c959c" stroke-width="2"/>
    </g>
    <path id="Path_17" data-name="Path 17" d="M-601.662-167.409l4.689-4.689" transform="translate(-37.208 -86.608) rotate(19)" fill="none" stroke="#8c959c" stroke-width="2"/>
    <path id="Path_18" data-name="Path 18" d="M-600.077-167.41h5.815" transform="translate(50.341 -265.653)" fill="none" stroke="#8c959c" stroke-width="2"/>
    <path id="Path_19" data-name="Path 19" d="M0,0,4.719,4.719" transform="translate(-551.248 -425.435) rotate(-19)" fill="none" stroke="#8c959c" stroke-width="2"/>
  </g>
</svg>
