<svg xmlns="http://www.w3.org/2000/svg" width="27" height="19" viewBox="0 0 27 19">
  <g id="Group_325" data-name="Group 325" transform="translate(-794 -996)">
    <g id="Group_321" data-name="Group 321" transform="translate(-6 3)">
      <path id="Rectangle_295" data-name="Rectangle 295" d="M2,0H25a2,2,0,0,1,2,2V4a0,0,0,0,1,0,0H0A0,0,0,0,1,0,4V2A2,2,0,0,1,2,0Z" transform="translate(800 993)" fill="#b7b7b7"/>
      <path id="Subtraction_1" data-name="Subtraction 1" d="M31,7H8A2,2,0,0,1,6,5V-3H33V5A2,2,0,0,1,31,7ZM7.967,1a1,1,0,0,0-1,1V4.968a1,1,0,0,0,1,1h5.512a1,1,0,0,0,1-1V2a1,1,0,0,0-1-1Z" transform="translate(794 1005)" fill="#b7b7b7"/>
      <path id="Path_183" data-name="Path 183" d="M119.849,64.44v-.066h.029V64.36h-.068v.014h.027v.066Zm.132,0v-.08h-.021l-.024.057-.024-.057h-.021v.08h.015v-.061l.022.052h.015l.022-.052v.061Z" transform="translate(688.006 945.319)" fill="#fff"/>
    </g>
  </g>
</svg>
