<svg xmlns="http://www.w3.org/2000/svg" width="16.567" height="19" viewBox="0 0 16.567 19">
  <g id="Group_331" data-name="Group 331" transform="translate(-39.282 -266)">
    <path id="Icon_awesome-copy" data-name="Icon awesome-copy" d="M11.834,16.625v1.484a.889.889,0,0,1-.888.891H.888A.889.889,0,0,1,0,18.109V4.453a.889.889,0,0,1,.888-.891H3.55V14.547a2.077,2.077,0,0,0,2.071,2.078Zm0-12.766V0H5.621a.889.889,0,0,0-.888.891V14.547a.889.889,0,0,0,.888.891H15.68a.889.889,0,0,0,.888-.891V4.75H12.721A.892.892,0,0,1,11.834,3.859Zm4.474-1.151L13.869.261A.886.886,0,0,0,13.241,0h-.224V3.563h3.55V3.338a.892.892,0,0,0-.26-.63Z" transform="translate(39.282 266)" fill="#fff"/>
  </g>
</svg>
