<svg xmlns="http://www.w3.org/2000/svg" width="18.375" height="24" viewBox="0 0 18.375 24">
  <g id="Group_326" data-name="Group 326" transform="translate(-729 -988)">
    <path id="Path_179" data-name="Path 179" d="M21.742,9.878H27.2a.3.3,0,0,0,.3-.3h0A1.776,1.776,0,0,0,26.86,8.2L22.282,4.389a1.927,1.927,0,0,0-1.236-.444h0a.443.443,0,0,0-.444.444v4.35A1.139,1.139,0,0,0,21.742,9.878Z" transform="translate(719.873 984.061)" fill="#b7b7b7"/>
    <path id="Subtraction_3" data-name="Subtraction 3" d="M16.32,24H1.92A1.922,1.922,0,0,1,0,22.08V1.92A1.922,1.922,0,0,1,1.92,0H9.78V4.8a2.7,2.7,0,0,0,2.7,2.7h5.76V22.08A1.923,1.923,0,0,1,16.32,24ZM2,16v1.75H16V16Zm0-4v1.75H16V12Z" transform="translate(729 988)" fill="#b7b7b7"/>
  </g>
</svg>
