<svg xmlns="http://www.w3.org/2000/svg" xmlns:xlink="http://www.w3.org/1999/xlink" width="128.387" height="38.873" viewBox="0 0 128.387 38.873">
  <defs>
    <linearGradient id="linear-gradient" x1="0.042" x2="0.914" y2="1.343" gradientUnits="objectBoundingBox">
      <stop offset="0" stop-color="#8e1e7c"/>
      <stop offset="1" stop-color="#c41466"/>
    </linearGradient>
  </defs>
  <path id="Path_10" data-name="Path 10" d="M1.32,6.97l5.905.042V-4.2h5.438a11.813,11.813,0,0,0,6.245-2.124,8.958,8.958,0,0,0,3.7-7.647,8.831,8.831,0,0,0-3.781-7.6A12.362,12.362,0,0,0,12.2-23.661H1.32Zm5.948-16.7.085-8.454h5.183a5.1,5.1,0,0,1,2.294.51c1.147.382,1.912,1.614,1.912,3.484,0,3.994-3.059,4.333-4.291,4.333-.382,0-.85,0-1.4.042C9.9-9.811,8.075-9.726,7.268-9.726ZM32.673,7.65a6.843,6.843,0,0,0,5.905-3.059l.17,2.422h5.565L44.187-6.922c0-3.356-1.827-5.735-5.523-7.137A10.8,10.8,0,0,0,30-13.507q-3.887,2.167-4.461,5.735L30.507-6.71c.51-2.677,2.592-3.866,5.311-3.186,2.931.722,2.464,3.186,1.869,3.654a3.484,3.484,0,0,1-1.487.467l-1.1.17c-.637.127-2,.3-2.549.34-4.928.637-7.817,2.889-7.35,7.307C25.663,5.568,28.255,7.65,32.673,7.65Zm2.422-4.461c-2.549.51-4.333-.3-4.333-2.294a1.723,1.723,0,0,1,1.487-1.912,10.625,10.625,0,0,1,1.614-.255c1.147-.042,3.314-.17,4.8-.382A4.187,4.187,0,0,1,35.095,3.189ZM47.8,15.212l5.565-.042L53.321,5.143A7.938,7.938,0,0,0,60.33,7.48c3.739-.425,8.454-3.229,8.922-9.984a11.687,11.687,0,0,0-2.931-9.134,9.77,9.77,0,0,0-6.8-3.1c-2.846,0-4.928.977-6.288,2.931l-.212-2.209-5.311-.042ZM53.236-3.524A7.336,7.336,0,0,1,54.383-7.56a4.63,4.63,0,0,1,3.909-1.912,4.764,4.764,0,0,1,3.866,1.7,5.946,5.946,0,0,1,1.572,4.206A6.116,6.116,0,0,1,62.157.767a4.618,4.618,0,0,1-3.7,1.7C55.19,2.424,53.236-.082,53.236-3.524ZM79.788,7.65a6.843,6.843,0,0,0,5.905-3.059l.17,2.422h5.565L91.3-6.922c0-3.356-1.827-5.735-5.523-7.137a10.8,10.8,0,0,0-8.667.552q-3.887,2.167-4.461,5.735L77.622-6.71c.51-2.677,2.592-3.866,5.311-3.186C85.863-9.174,85.4-6.71,84.8-6.242a3.484,3.484,0,0,1-1.487.467l-1.1.17c-.637.127-2,.3-2.549.34-4.928.637-7.817,2.889-7.35,7.307C72.778,5.568,75.37,7.65,79.788,7.65ZM82.21,3.189c-2.549.51-4.333-.3-4.333-2.294a1.723,1.723,0,0,1,1.487-1.912,10.624,10.624,0,0,1,1.614-.255c1.147-.042,3.314-.17,4.8-.382A4.187,4.187,0,0,1,82.21,3.189ZM100.351.6a33.361,33.361,0,0,1,.3-5.65,5.908,5.908,0,0,1,1.4-2.761,4.35,4.35,0,0,1,3.016-1.444,5.047,5.047,0,0,1,3.1.552l1.529-5.056a5.741,5.741,0,0,0-2.761-.722,6.252,6.252,0,0,0-2.8.3,6.006,6.006,0,0,0-3.781,3.441v-3.1H94.828V6.928l5.523.042ZM118.066,7.65a6.843,6.843,0,0,0,5.905-3.059l.17,2.422h5.565L129.58-6.922c0-3.356-1.827-5.735-5.523-7.137a10.8,10.8,0,0,0-8.667.552q-3.887,2.167-4.461,5.735L115.9-6.71c.51-2.677,2.592-3.866,5.311-3.186,2.931.722,2.464,3.186,1.869,3.654a3.484,3.484,0,0,1-1.487.467l-1.1.17c-.637.127-2,.3-2.549.34-4.928.637-7.817,2.889-7.35,7.307C111.057,5.568,113.648,7.65,118.066,7.65Zm2.422-4.461c-2.549.51-4.333-.3-4.333-2.294a1.723,1.723,0,0,1,1.487-1.912,10.625,10.625,0,0,1,1.614-.255c1.147-.042,3.314-.17,4.8-.382A4.187,4.187,0,0,1,120.488,3.189Z" transform="translate(-1.32 23.661)" fill="url(#linear-gradient)"/>
</svg>
