<svg xmlns="http://www.w3.org/2000/svg" width="18.265" height="28" viewBox="0 0 18.265 28">
  <g id="Group_307" data-name="Group 307" transform="translate(-319.968 -140.25)">
    <path id="Icon_awesome-wifi" data-name="Icon awesome-wifi" d="M27.777,5.453a20.132,20.132,0,0,0-27.555,0,.712.712,0,0,0-.015,1.02l1.5,1.507A.7.7,0,0,0,2.685,8a16.612,16.612,0,0,1,22.63,0,.7.7,0,0,0,.98-.017l1.5-1.507a.713.713,0,0,0-.016-1.02ZM22.867,10.49a13.29,13.29,0,0,0-17.734,0,.708.708,0,0,0-.025,1.027l1.507,1.508a.707.707,0,0,0,.965.035,9.749,9.749,0,0,1,12.84,0,.706.706,0,0,0,.965-.035l1.507-1.508A.708.708,0,0,0,22.867,10.49Z" transform="translate(338.233 140.25) rotate(90)" fill="#fff"/>
    <path id="Icon_awesome-wifi-2" data-name="Icon awesome-wifi" d="M9.588,1.784a7.167,7.167,0,0,0-9.463,0,.369.369,0,0,0-.013.54l.8.794a.381.381,0,0,0,.515.019,5.258,5.258,0,0,1,6.852,0A.381.381,0,0,0,8.8,3.118l.8-.794A.369.369,0,0,0,9.588,1.784Z" transform="translate(324 149.394) rotate(90)" fill="#fff" stroke="#fff" stroke-width="1.5"/>
  </g>
</svg>
